<svg width="20" height="20" viewBox="0 0 20 20" fill="none" xmlns="http://www.w3.org/2000/svg">
<g id="Icons">
<path id="Vector" d="M9.99986 7.5001V10.8334M3.64903 12.6668C2.8907 13.9793 2.51236 14.6359 2.56903 15.1751C2.59351 15.4072 2.66646 15.6316 2.78317 15.8337C2.89988 16.0358 3.05774 16.2112 3.24653 16.3484C3.68486 16.6668 4.44236 16.6668 5.9582 16.6668H14.044C15.5582 16.6668 16.3157 16.6668 16.7532 16.3484C16.9422 16.2112 17.1003 16.0357 17.2172 15.8335C17.334 15.6312 17.4071 15.4066 17.4315 15.1743C17.4882 14.6359 17.1099 13.9793 16.3515 12.6659L12.3099 5.66593C11.5524 4.35426 11.1732 3.6976 10.6782 3.4776C10.4648 3.38259 10.2339 3.3335 10.0003 3.3335C9.7667 3.3335 9.53574 3.38259 9.32236 3.4776C8.8282 3.6976 8.44903 4.35426 7.69153 5.6651L3.64903 12.6668ZM10.0424 13.3334V13.4168H9.95903V13.3334H10.0424Z" stroke="#DE315E" stroke-width="1.66667" stroke-linecap="round" stroke-linejoin="round"/>
</g>
</svg>
