<svg width="24" height="17" viewBox="0 0 24 17" fill="none" xmlns="http://www.w3.org/2000/svg">
<path d="M12 10C13.381 10 14.631 9.44 15.536 8.535C16.44 7.631 17 6.381 17 5C17 3.619 16.44 2.369 15.536 1.465C14.631 0.56 13.381 0 12 0C10.619 0 9.369 0.56 8.464 1.465C7.56 2.369 7 3.619 7 5C7 6.381 7.56 7.631 8.464 8.535C8.92781 9.00011 9.47897 9.36897 10.0858 9.62039C10.6926 9.8718 11.3432 10.0008 12 10ZM20 11C20.3285 11.0007 20.6539 10.9364 20.9575 10.811C21.2611 10.6856 21.537 10.5015 21.7692 10.2692C22.0015 10.037 22.1856 9.7611 22.311 9.45749C22.4364 9.15388 22.5007 8.82849 22.5 8.5C22.5 7.81 22.221 7.185 21.768 6.732C21.5361 6.49951 21.2605 6.31516 20.9571 6.18954C20.6536 6.06392 20.3284 5.9995 20 6C19.6715 5.99934 19.3461 6.06356 19.0425 6.18896C18.7389 6.31436 18.463 6.49849 18.2308 6.73076C17.9985 6.96304 17.8144 7.2389 17.689 7.54251C17.5636 7.84612 17.4993 8.17151 17.5 8.5C17.4995 8.82845 17.5638 9.15378 17.6892 9.45733C17.8147 9.76088 17.9988 10.0367 18.2311 10.2689C18.4633 10.5012 18.7391 10.6853 19.0427 10.8108C19.3462 10.9362 19.6715 11.0005 20 11ZM20 11.59C18.669 11.59 17.668 11.996 17.083 12.558C15.968 11.641 14.205 11 12 11C9.734 11 8.005 11.648 6.908 12.564C6.312 11.999 5.3 11.59 4 11.59C1.812 11.59 0.5 12.68 0.5 13.772C0.5 14.317 1.812 14.864 4 14.864C4.604 14.864 5.146 14.813 5.623 14.731L5.583 15.001C5.583 16.001 7.989 17.001 12 17.001C15.762 17.001 18.417 16.001 18.417 15.001L18.397 14.746C18.86 14.819 19.392 14.864 20 14.864C22.051 14.864 23.5 14.317 23.5 13.772C23.5 12.68 22.127 11.59 20 11.59ZM4 11C4.69 11 5.315 10.721 5.768 10.268C6.00049 10.0361 6.18484 9.76048 6.31046 9.45706C6.43608 9.15364 6.5005 8.82839 6.5 8.5C6.50066 8.17151 6.43644 7.84612 6.31104 7.54251C6.18564 7.2389 6.00151 6.96304 5.76924 6.73076C5.53696 6.49849 5.2611 6.31436 4.95749 6.18896C4.65388 6.06356 4.32849 5.99934 4 6C3.67155 5.99947 3.34622 6.06378 3.04267 6.18923C2.73912 6.31468 2.46331 6.49881 2.23106 6.73106C1.99881 6.96331 1.81468 7.23912 1.68923 7.54267C1.56378 7.84622 1.49947 8.17155 1.5 8.5C1.49934 8.82849 1.56356 9.15388 1.68896 9.45749C1.81436 9.7611 1.99849 10.037 2.23076 10.2692C2.46304 10.5015 2.7389 10.6856 3.04251 10.811C3.34612 10.9364 3.67151 11.0007 4 11Z" fill="#FDFDFD"/>
</svg>
