<svg width="24" height="24" viewBox="0 0 24 24" fill="none" xmlns="http://www.w3.org/2000/svg">
<g id="fluent:water-32-filled">
<path id="Vector" d="M1.50073 7.40245C1.54573 7.88995 1.95823 8.24995 2.43823 8.24995L2.43073 8.24245H2.51323C2.60323 8.23495 4.16398 8.07745 5.29723 6.62245C6.15223 7.64995 7.30723 8.24245 8.62048 8.24245C9.93373 8.24245 11.1345 7.61995 11.997 6.55495C12.8595 7.61995 14.0827 8.24245 15.3735 8.24245C16.6642 8.24245 17.841 7.64995 18.6967 6.62245C19.8292 8.07745 21.3975 8.24245 21.4807 8.24245C21.9982 8.27995 22.4407 7.91245 22.4932 7.40245C22.5164 7.15633 22.4423 6.9109 22.2867 6.71882C22.131 6.52674 21.9063 6.40329 21.6607 6.37495C21.5107 6.35995 20.1825 6.14995 19.65 4.40995C19.5375 4.02745 19.185 3.76495 18.7875 3.74995C18.3592 3.71995 18.0217 3.97495 17.8792 4.34995C17.3917 5.60995 16.4617 6.36745 15.381 6.36745C14.301 6.36745 13.3702 5.61745 12.882 4.34995C12.7395 3.98995 12.3945 3.74995 12.0045 3.74995C11.6145 3.74995 11.2695 3.98995 11.127 4.34995C10.6395 5.60995 9.70123 6.36745 8.62798 6.36745C7.55473 6.36745 6.61798 5.61745 6.13048 4.34995C6.05852 4.16913 5.93289 4.0147 5.77051 3.90743C5.60813 3.80015 5.41679 3.7452 5.22223 3.74995C4.81723 3.76495 4.47223 4.03495 4.35223 4.41745C3.81223 6.15745 2.48323 6.36745 2.34823 6.38245C1.83073 6.42745 1.45573 6.88495 1.50073 7.40245ZM2.43823 14.25C2.19807 14.2495 1.96727 14.1568 1.79356 13.991C1.61985 13.8251 1.51653 13.5989 1.50497 13.359C1.49341 13.1191 1.5745 12.884 1.73145 12.7022C1.88841 12.5205 2.10923 12.406 2.34823 12.3825C2.48323 12.3675 3.81148 12.1575 4.35148 10.4175C4.47148 10.035 4.81648 9.76495 5.22148 9.74995C5.61148 9.74245 5.98723 9.97495 6.12973 10.35C6.61723 11.6175 7.55473 12.3675 8.62798 12.3675C9.70048 12.3675 10.6387 11.61 11.127 10.35C11.2695 9.98995 11.6145 9.74995 12.0045 9.74995C12.3945 9.74995 12.7395 9.98995 12.882 10.35C13.3695 11.6175 14.3002 12.3675 15.381 12.3675C16.4617 12.3675 17.391 11.61 17.8785 10.35C18.021 9.97495 18.3592 9.71995 18.7867 9.74995C19.1842 9.76495 19.5367 10.0275 19.6492 10.41C20.1817 12.15 21.51 12.36 21.6607 12.375C22.1707 12.435 22.5457 12.8925 22.4932 13.4025C22.4685 13.6474 22.3485 13.8727 22.1591 14.0299C21.9696 14.187 21.726 14.2634 21.4807 14.2425C21.3982 14.2425 19.83 14.0775 18.6967 12.6225C17.8417 13.65 16.6642 14.2425 15.3735 14.2425C14.0827 14.2425 12.8595 13.62 11.997 12.555C11.1345 13.62 9.93373 14.2425 8.62048 14.2425C7.30723 14.2425 6.15298 13.65 5.29723 12.6225C4.16473 14.0775 2.60398 14.235 2.51323 14.2425H2.43073L2.43823 14.25ZM2.43823 20.25C2.19807 20.2495 1.96727 20.1568 1.79356 19.991C1.61985 19.8251 1.51653 19.5989 1.50497 19.359C1.49341 19.1191 1.5745 18.884 1.73145 18.7022C1.88841 18.5205 2.10923 18.406 2.34823 18.3825C2.48323 18.3675 3.81148 18.1575 4.35148 16.4175C4.47148 16.035 4.81648 15.765 5.22148 15.75C5.61148 15.7425 5.98723 15.975 6.12973 16.35C6.61723 17.6175 7.55473 18.3675 8.62798 18.3675C9.70048 18.3675 10.6387 17.61 11.127 16.35C11.2695 15.99 11.6145 15.75 12.0045 15.75C12.3945 15.75 12.7395 15.99 12.882 16.35C13.3695 17.6175 14.3002 18.3675 15.381 18.3675C16.4617 18.3675 17.391 17.61 17.8785 16.35C18.021 15.975 18.3592 15.72 18.7867 15.75C19.1842 15.765 19.5367 16.0275 19.6492 16.41C20.1817 18.15 21.51 18.36 21.6607 18.375C22.1707 18.435 22.5457 18.8925 22.4932 19.4025C22.4685 19.6474 22.3485 19.8727 22.1591 20.0299C21.9696 20.187 21.726 20.2634 21.4807 20.2425C21.3982 20.2425 19.83 20.0775 18.6967 18.6225C17.8417 19.65 16.6642 20.2425 15.3735 20.2425C14.0827 20.2425 12.8595 19.62 11.997 18.555C11.1345 19.62 9.93373 20.2425 8.62048 20.2425C7.30723 20.2425 6.15298 19.65 5.29723 18.6225C4.16473 20.0775 2.60398 20.235 2.51323 20.2425H2.43073L2.43823 20.25Z" fill="#FDFDFD"/>
</g>
</svg>
