<svg width="20" height="20" viewBox="0 0 20 20" fill="none" xmlns="http://www.w3.org/2000/svg">
<g id="Gateway">
<path id="Vector" d="M3.33317 18.3332H1.6665V1.6665H3.33317M18.3332 1.6665H16.6665V18.3332H18.3332M14.9582 5.0415C14.6314 4.71474 14.1016 4.71474 13.7748 5.0415L11.0332 7.78317C10.5667 7.56037 10.0425 7.48767 9.533 7.5751C9.02346 7.66252 8.55356 7.90576 8.18799 8.27132C7.82243 8.63689 7.57919 9.1068 7.49176 9.61634C7.40434 10.1259 7.47703 10.65 7.69984 11.1165L4.95817 13.8582C4.6314 14.1849 4.6314 14.7147 4.95817 15.0415C5.28494 15.3683 5.81473 15.3683 6.1415 15.0415L8.88317 12.2998C9.34968 12.5226 9.87379 12.5953 10.3833 12.5079C10.8929 12.4205 11.3628 12.1772 11.7283 11.8117C12.0939 11.4461 12.3372 10.9762 12.4246 10.4667C12.512 9.95713 12.4393 9.43302 12.2165 8.9665L14.9582 6.22484C15.2849 5.89807 15.2849 5.36827 14.9582 5.0415Z" fill="#1565C0"/>
</g>
</svg>
