<svg width="25" height="24" viewBox="0 0 25 24" fill="none" xmlns="http://www.w3.org/2000/svg">
<g id="ion:water">
<path id="Vector" d="M12.761 2.81823C12.7082 2.75656 12.6427 2.70705 12.5689 2.6731C12.4952 2.63916 12.4149 2.62158 12.3337 2.62158C12.2525 2.62158 12.1723 2.63916 12.0986 2.6731C12.0248 2.70705 11.9593 2.75656 11.9065 2.81823C10.4224 4.55401 5.5835 10.5549 5.5835 15.0001C5.5835 19.1424 8.19162 21.7501 12.3335 21.7501C16.4754 21.7501 19.0835 19.1424 19.0835 15.0001C19.0835 10.5549 14.2446 4.55401 12.761 2.81823ZM13.0835 19.3126C12.9934 19.3128 12.9046 19.2914 12.8245 19.2501C12.7444 19.2088 12.6754 19.1489 12.6233 19.0754C12.5712 19.0019 12.5376 18.9169 12.5251 18.8277C12.5127 18.7385 12.5219 18.6475 12.5519 18.5626C12.5903 18.4518 12.6626 18.3559 12.7587 18.2885C12.8547 18.2212 12.9695 18.1859 13.0868 18.1876C13.8313 18.186 14.5449 17.8895 15.0714 17.363C15.5979 16.8365 15.8944 16.1229 15.896 15.3784C15.8943 15.2611 15.9296 15.1463 15.9969 15.0503C16.0643 14.9542 16.1602 14.8819 16.271 14.8435C16.3559 14.8135 16.4468 14.8043 16.5361 14.8167C16.6253 14.8292 16.7103 14.8628 16.7838 14.9149C16.8573 14.967 16.9172 15.036 16.9585 15.1161C16.9997 15.1962 17.0212 15.285 17.021 15.3751C17.0199 16.419 16.6047 17.4199 15.8665 18.1581C15.1283 18.8963 14.1274 19.3115 13.0835 19.3126Z" fill="#FDFDFD"/>
</g>
</svg>
