<svg width="16" height="18" viewBox="0 0 16 18" fill="none" xmlns="http://www.w3.org/2000/svg">
<path d="M6.33338 12.3333H2.16671V16.5M9.66671 5.66667H13.8334V1.5M1.81921 6.5025C2.28654 5.3462 3.06885 4.34418 4.07724 3.61031C5.08562 2.87643 6.27965 2.44013 7.52362 2.35098C8.76759 2.26183 10.0116 2.52342 11.1144 3.10601C12.2171 3.68859 13.1343 4.56882 13.7617 5.64667M14.1817 11.4975C13.7145 12.654 12.9322 13.6562 11.9237 14.3903C10.9152 15.1243 9.72107 15.5607 8.47693 15.6499C7.2328 15.739 5.98861 15.4773 4.88578 14.8946C3.78296 14.3119 2.86574 13.4314 2.23838 12.3533" stroke="#6C757D" stroke-width="1.66667" stroke-linecap="round" stroke-linejoin="round"/>
</svg>
