<svg width="24" height="24" viewBox="0 0 24 24" fill="none" xmlns="http://www.w3.org/2000/svg">
<g id="material-symbols:water-ec">
<path id="Vector" d="M11 18H12L16 12H13V8H12L8 14H11V18ZM12 22C9.71667 22 7.81267 21.2167 6.288 19.65C4.76333 18.0833 4.00067 16.1333 4 13.8C4 12.1333 4.66267 10.321 5.988 8.363C7.31333 6.405 9.31733 4.284 12 2C14.6833 4.28333 16.6877 6.40433 18.013 8.363C19.3383 10.3217 20.0007 12.134 20 13.8C20 16.1333 19.2377 18.0833 17.713 19.65C16.1883 21.2167 14.284 22 12 22Z" fill="#FDFDFD"/>
</g>
</svg>
