<svg width="14" height="20" viewBox="0 0 14 20" fill="none" xmlns="http://www.w3.org/2000/svg">
<path d="M7.4275 0.818135C7.37469 0.756464 7.30916 0.706956 7.23541 0.673011C7.16165 0.639067 7.08143 0.62149 7.00023 0.62149C6.91904 0.62149 6.83882 0.639067 6.76506 0.673011C6.69131 0.706956 6.62578 0.756464 6.57297 0.818135C5.08891 2.55392 0.25 8.55485 0.25 13C0.25 17.1424 2.85812 19.75 7 19.75C11.1419 19.75 13.75 17.1424 13.75 13C13.75 8.55485 8.91109 2.55392 7.4275 0.818135ZM7.75 17.3125C7.65991 17.3127 7.57108 17.2913 7.49101 17.25C7.41093 17.2087 7.34194 17.1488 7.28984 17.0753C7.23775 17.0018 7.20407 16.9168 7.19164 16.8276C7.17922 16.7384 7.18841 16.6474 7.21844 16.5625C7.25679 16.4517 7.32914 16.3558 7.42517 16.2884C7.52119 16.2211 7.63601 16.1858 7.75328 16.1875C8.49784 16.1859 9.21144 15.8894 9.73792 15.3629C10.2644 14.8364 10.5609 14.1228 10.5625 13.3783C10.5608 13.261 10.5961 13.1462 10.6634 13.0502C10.7308 12.9541 10.8267 12.8818 10.9375 12.8434C11.0224 12.8134 11.1134 12.8042 11.2026 12.8167C11.2918 12.8291 11.3768 12.8628 11.4503 12.9149C11.5238 12.9669 11.5837 13.0359 11.625 13.116C11.6663 13.1961 11.6877 13.2849 11.6875 13.375C11.6864 14.419 11.2712 15.4198 10.533 16.158C9.79482 16.8962 8.79395 17.3114 7.75 17.3125Z" fill="#FDFDFD"/>
</svg>
