<svg width="25" height="24" viewBox="0 0 25 24" fill="none" xmlns="http://www.w3.org/2000/svg">
<g id="material-symbols:water-loss">
<path id="Vector" d="M7.1165 15C7.8665 14.6667 8.63317 14.4167 9.4165 14.25C10.1998 14.0833 10.9915 14 11.7915 14C12.2915 14 12.7875 14.0333 13.2795 14.1C13.7715 14.1667 14.2588 14.2667 14.7415 14.4C15.5748 14.6333 16.2125 14.7917 16.6545 14.875C17.0965 14.9583 17.5672 15 18.0665 15H18.2165L19.4165 4H5.9165L7.1165 15ZM7.6415 22C7.12484 22 6.67917 21.8333 6.3045 21.5C5.92984 21.1667 5.71717 20.7417 5.6665 20.225L3.6665 2H21.6665L19.6665 20.225C19.6165 20.7417 19.4038 21.1667 19.0285 21.5C18.6532 21.8333 18.2075 22 17.6915 22H7.6415Z" fill="#FDFDFD"/>
</g>
</svg>
