<svg width="24" height="24" viewBox="0 0 24 24" fill="none" xmlns="http://www.w3.org/2000/svg">
<path d="M11.8586 10.9114C11.2453 15.8494 8.11335 16.7278 8.11335 20.161C8.11335 22.2802 9.89295 23.9998 12.0001 23.9998C14.1074 23.9998 15.8857 22.279 15.8857 20.161C15.8857 16.7278 12.7537 15.8494 12.1405 10.9114C12.1213 10.7638 11.8778 10.7638 11.8586 10.9114ZM4.65975 0.111432C4.04655 5.04943 0.914551 5.92663 0.914551 9.36103C0.914551 11.479 2.69295 13.1998 4.80015 13.1998C6.90735 13.1998 8.68575 11.479 8.68575 9.36103C8.68575 5.92783 5.55375 5.04943 4.94055 0.111432C4.92255 -0.0361676 4.67775 -0.0361676 4.65975 0.111432ZM19.0597 0.111432C18.4466 5.04943 15.3146 5.92783 15.3146 9.36103C15.3146 11.479 17.0929 13.1998 19.2001 13.1998C21.3074 13.1998 23.0858 11.479 23.0858 9.36103C23.0858 5.92783 19.9538 5.04943 19.3405 0.111432C19.3214 -0.0361676 19.0777 -0.0361676 19.0597 0.111432Z" fill="#FDFDFD"/>
</svg>
