<svg width="18" height="18" viewBox="0 0 18 18" fill="none" xmlns="http://www.w3.org/2000/svg">
<path d="M6.33337 3.33335H4.00004C3.06671 3.33335 2.60004 3.33335 2.24337 3.51502C1.92975 3.67476 1.67478 3.92973 1.51504 4.24335C1.33337 4.60002 1.33337 5.06669 1.33337 6.00002V14C1.33337 14.9334 1.33337 15.4 1.51504 15.7567C1.67483 16.0703 1.92978 16.3252 2.24337 16.485C2.59921 16.6667 3.06587 16.6667 3.99754 16.6667H12.0025C12.9342 16.6667 13.4 16.6667 13.7559 16.485C14.07 16.325 14.325 16.07 14.485 15.7567C14.6667 15.4 14.6667 14.9342 14.6667 14.0025V11.6667M11.3334 4.16669L6.33337 9.16669V11.6667H8.83337L13.8334 6.66669M11.3334 4.16669L13.8334 1.66669L16.3334 4.16669L13.8334 6.66669M11.3334 4.16669L13.8334 6.66669" stroke="#6C757D" stroke-width="2" stroke-linecap="round" stroke-linejoin="round"/>
</svg>
