<svg width="20" height="20" viewBox="0 0 20 20" fill="none" xmlns="http://www.w3.org/2000/svg">
<g id="Meter">
<path id="Vector" d="M14.1665 2.08333H13.1248V0H11.0415V2.08333H8.95817V0H6.87484V2.08333H5.83317C3.53109 2.08333 1.6665 3.94792 1.6665 6.25V15.8333C1.6665 18.1354 3.53109 20 5.83317 20H14.1665C16.4686 20 18.3332 18.1354 18.3332 15.8333V6.25C18.3332 3.94792 16.4686 2.08333 14.1665 2.08333ZM16.2498 15.8333C16.2498 16.9792 15.3123 17.9167 14.1665 17.9167H5.83317C4.68734 17.9167 3.74984 16.9792 3.74984 15.8333V6.25C3.74984 5.10417 4.68734 4.16667 5.83317 4.16667H14.1665C15.3123 4.16667 16.2498 5.10417 16.2498 6.25V15.8333ZM7.39567 14.1042C7.39567 15.5208 8.56234 16.6667 9.99984 16.6667C11.4373 16.6667 12.604 15.5208 12.604 14.1042C12.604 12.9687 12.1353 12.6354 9.99984 10.1562C7.84359 12.6562 7.39567 12.9792 7.39567 14.1042ZM5.83317 6.25H14.1665V8.33333H5.83317V6.25Z" fill="#FCA311"/>
</g>
</svg>
